# xmcd
#
# Track frame offsets:
#	150
#	15868
#	28946
#	45290
#	60585
#	73857
#	86797
#	99301
#	116918
#	130471
#
# Disc length: 1909 seconds
#
# Revision: 0
# Processed by: cddbd v1.5.2PL0 Copyright (c) Steve Scherf et al.
# Submitted via: EZCDAudioConverter 2.0.7.1
#
DISCID=8207730a
DTITLE=Reto Burrell - Lucky Charm 
DYEAR=2014
DGENRE=Blues
TTITLE0=Lucky Charm
TTITLE1=A New Pair Of Shoes
TTITLE2=Come Rain Come Shine
TTITLE3=Right Beside Me
TTITLE4=Everybody`s Sneaking Around
TTITLE5=The Journey
TTITLE6=Hit The Ground
TTITLE7=The Reason Why
TTITLE8=Half Your Love Is Fine
TTITLE9=Can`t Break The Rules/Hole In M
EXTD=
EXTT0=
EXTT1=
EXTT2=
EXTT3=
EXTT4=
EXTT5=
EXTT6=
EXTT7=
EXTT8=
EXTT9=
PLAYORDER=
